<svg width="325" height="325" viewBox="0 0 325 325" fill="none" xmlns="http://www.w3.org/2000/svg">
<rect width="325" height="325" rx="162.5" fill="#213757"/>
<path d="M165.629 98.3594V124.336H183.695V145.039H165.629V197.773C165.629 201.68 166.378 204.479 167.875 206.172C169.372 207.865 172.237 208.711 176.469 208.711C179.594 208.711 182.361 208.483 184.77 208.027V229.414C179.236 231.107 173.539 231.953 167.68 231.953C147.888 231.953 137.797 221.96 137.406 201.973V145.039H121.977V124.336H137.406V98.3594H165.629Z" fill="white"/>
<path d="M200.883 216.133C200.883 211.641 202.38 207.995 205.375 205.195C208.435 202.396 212.243 200.996 216.801 200.996C221.423 200.996 225.232 202.396 228.227 205.195C231.286 207.995 232.816 211.641 232.816 216.133C232.816 220.56 231.319 224.173 228.324 226.973C225.329 229.707 221.488 231.074 216.801 231.074C212.178 231.074 208.37 229.707 205.375 226.973C202.38 224.173 200.883 220.56 200.883 216.133Z" fill="#FCCE0D"/>
</svg>
