<svg width="92" height="15" viewBox="0 0 92 15" fill="none" xmlns="http://www.w3.org/2000/svg">
<path d="M8.22415 0.777965L9.91595 4.206C10.0336 4.44442 10.2611 4.60963 10.5242 4.6478L14.3074 5.19755C14.9701 5.29392 15.2345 6.10807 14.7551 6.57521L12.0176 9.24355C11.8274 9.42909 11.7404 9.69661 11.7855 9.9585L12.4316 13.7263C12.5449 14.3862 11.8521 14.8894 11.2595 14.578L7.8759 12.7992C7.64061 12.6756 7.35932 12.6756 7.12403 12.7992L3.74042 14.578C3.14781 14.8897 2.45507 14.3862 2.56833 13.7263L3.21445 9.9585C3.25951 9.69661 3.17252 9.42909 2.98229 9.24355L0.244803 6.57521C-0.234546 6.10775 0.0298469 5.29361 0.69255 5.19755L4.47572 4.6478C4.73886 4.60963 4.96633 4.44442 5.08398 4.206L6.77578 0.777965C7.07177 0.177527 7.92784 0.177527 8.22415 0.777965Z" fill="#FFB300"/>
<g clip-path="url(#clip0)">
<path d="M27.3911 0.777965L29.0829 4.206C29.2006 4.44442 29.4281 4.60963 29.6912 4.6478L33.4744 5.19755C34.1371 5.29392 34.4015 6.10807 33.9221 6.57521L31.1846 9.24355C30.9944 9.42909 30.9074 9.69661 30.9525 9.9585L31.5986 13.7263C31.7119 14.3862 31.0191 14.8894 30.4265 14.578L27.0429 12.7992C26.8076 12.6756 26.5263 12.6756 26.291 12.7992L22.9074 14.578C22.3148 14.8897 21.6221 14.3862 21.7353 13.7263L22.3814 9.9585C22.4265 9.69661 22.3395 9.42909 22.1493 9.24355L19.4118 6.57521C18.9324 6.10775 19.1968 5.29361 19.8595 5.19755L23.6427 4.6478C23.9058 4.60963 24.1333 4.44442 24.251 4.206L25.9428 0.777965C26.2388 0.177527 27.0948 0.177527 27.3911 0.777965Z" fill="#FFB300"/>
</g>
<g clip-path="url(#clip1)">
<path d="M46.5572 0.777965L48.249 4.206C48.3666 4.44442 48.5941 4.60963 48.8572 4.6478L52.6404 5.19755C53.3031 5.29392 53.5675 6.10807 53.0881 6.57521L50.3507 9.24355C50.1604 9.42909 50.0734 9.69661 50.1185 9.9585L50.7646 13.7263C50.8779 14.3862 50.1851 14.8894 49.5925 14.578L46.2089 12.7992C45.9736 12.6756 45.6923 12.6756 45.457 12.7992L42.0734 14.578C41.4808 14.8897 40.7881 14.3862 40.9013 13.7263L41.5475 9.9585C41.5925 9.69661 41.5055 9.42909 41.3153 9.24355L38.5778 6.57521C38.0985 6.10775 38.3629 5.29361 39.0256 5.19755L42.8087 4.6478C43.0719 4.60963 43.2993 4.44442 43.417 4.206L45.1088 0.777965C45.4048 0.177527 46.2609 0.177527 46.5572 0.777965Z" fill="#FFB300"/>
</g>
<g clip-path="url(#clip2)">
<path d="M65.7242 0.777965L67.416 4.206C67.5336 4.44442 67.7611 4.60963 68.0242 4.6478L71.8074 5.19755C72.4701 5.29392 72.7345 6.10807 72.2551 6.57521L69.5176 9.24355C69.3274 9.42909 69.2404 9.69661 69.2855 9.9585L69.9316 13.7263C70.0449 14.3862 69.3521 14.8894 68.7595 14.578L65.3759 12.7992C65.1406 12.6756 64.8593 12.6756 64.624 12.7992L61.2404 14.578C60.6478 14.8897 59.9551 14.3862 60.0683 13.7263L60.7145 9.9585C60.7595 9.69661 60.6725 9.42909 60.4823 9.24355L57.7448 6.57521C57.2655 6.10775 57.5298 5.29361 58.1926 5.19755L61.9757 4.6478C62.2389 4.60963 62.4663 4.44442 62.584 4.206L64.2758 0.777965C64.5718 0.177527 65.4278 0.177527 65.7242 0.777965Z" fill="#FFB300"/>
</g>
<g clip-path="url(#clip3)">
<path d="M84.8911 0.777965L86.5829 4.206C86.7006 4.44442 86.9281 4.60963 87.1912 4.6478L90.9744 5.19755C91.6371 5.29392 91.9015 6.10807 91.4221 6.57521L88.6846 9.24355C88.4944 9.42909 88.4074 9.69661 88.4525 9.9585L89.0986 13.7263C89.2119 14.3862 88.5191 14.8894 87.9265 14.578L84.5429 12.7992C84.3076 12.6756 84.0263 12.6756 83.791 12.7992L80.4074 14.578C79.8148 14.8897 79.1221 14.3862 79.2353 13.7263L79.8814 9.9585C79.9265 9.69661 79.8395 9.42909 79.6493 9.24355L76.9118 6.57521C76.4324 6.10775 76.6968 5.29361 77.3595 5.19755L81.1427 4.6478C81.4058 4.60963 81.6333 4.44442 81.751 4.206L83.4428 0.777965C83.7388 0.177527 84.5948 0.177527 84.8911 0.777965Z" fill="#FFB300"/>
</g>
<defs>
<clipPath id="clip0">
<rect width="15" height="15" fill="white" transform="translate(19.167)"/>
</clipPath>
<clipPath id="clip1">
<rect width="15" height="15" fill="white" transform="translate(38.333)"/>
</clipPath>
<clipPath id="clip2">
<rect width="15" height="15" fill="white" transform="translate(57.5)"/>
</clipPath>
<clipPath id="clip3">
<rect width="15" height="15" fill="white" transform="translate(76.667)"/>
</clipPath>
</defs>
</svg>
