<svg width="87" height="24" viewBox="0 0 87 24" fill="none" xmlns="http://www.w3.org/2000/svg">
<path d="M7.85444 23.36C6.27044 23.36 5.07044 22.904 4.25444 21.992C3.43844 21.056 3.03044 19.94 3.03044 18.644V8.672H0.474438L0.870438 5H3.03044V1.04L7.49444 0.571999V5H11.4544V8.672H7.49444V16.808C7.49444 17.768 7.54244 18.44 7.63844 18.824C7.75844 19.184 7.98644 19.424 8.32244 19.544C8.68244 19.64 9.31844 19.688 10.2304 19.688H11.4544L11.0584 23.36H7.85444ZM23.0374 23.36C20.9494 23.36 19.1614 22.94 17.6734 22.1C16.2094 21.236 15.1054 20.096 14.3614 18.68C13.6414 17.24 13.2814 15.644 13.2814 13.892C13.2814 12.212 13.6294 10.676 14.3254 9.284C15.0214 7.892 16.0294 6.788 17.3494 5.972C18.6694 5.132 20.2414 4.712 22.0654 4.712C23.7454 4.712 25.1614 5.06 26.3134 5.756C27.4894 6.452 28.3654 7.388 28.9414 8.564C29.5414 9.74 29.8414 11.06 29.8414 12.524C29.8414 13.244 29.7454 14.06 29.5534 14.972H17.9254C18.1654 16.556 18.7894 17.744 19.7974 18.536C20.8054 19.304 22.0174 19.688 23.4334 19.688C25.3774 19.688 27.1774 19.196 28.8334 18.212L29.0494 21.992C28.2814 22.4 27.3814 22.736 26.3494 23C25.3414 23.24 24.2374 23.36 23.0374 23.36ZM25.3054 11.948C25.3054 11.012 25.0414 10.184 24.5134 9.464C23.9854 8.744 23.1694 8.384 22.0654 8.384C20.9614 8.384 20.0734 8.708 19.4014 9.356C18.7294 10.004 18.2734 10.868 18.0334 11.948H25.3054ZM36.7768 23.36C35.2888 23.36 34.0408 22.88 33.0328 21.92C32.0488 20.936 31.5568 19.616 31.5568 17.96C31.5568 16.4 32.1208 15.152 33.2488 14.216C34.3768 13.256 35.7088 12.584 37.2448 12.2C38.7808 11.792 40.2568 11.564 41.6728 11.516C41.6248 10.46 41.3488 9.704 40.8448 9.248C40.3648 8.792 39.5608 8.564 38.4328 8.564C37.6408 8.564 36.8608 8.672 36.0928 8.888C35.3488 9.104 34.4848 9.452 33.5008 9.932L33.1048 6.296C35.2888 5.24 37.4728 4.712 39.6568 4.712C41.7688 4.712 43.3768 5.288 44.4808 6.44C45.6088 7.592 46.1728 9.428 46.1728 11.948V16.808C46.1728 17.72 46.2088 18.38 46.2808 18.788C46.3768 19.172 46.5208 19.424 46.7128 19.544C46.9288 19.64 47.2768 19.688 47.7568 19.688H48.3328L47.9368 23.36H46.3168C45.3328 23.36 44.5048 23.18 43.8328 22.82C43.1608 22.436 42.6448 21.92 42.2848 21.272C41.7088 21.92 40.9168 22.436 39.9088 22.82C38.9248 23.18 37.8808 23.36 36.7768 23.36ZM38.6488 19.94C39.1048 19.94 39.6208 19.832 40.1968 19.616C40.7728 19.376 41.2768 19.052 41.7088 18.644V14.54C40.2688 14.612 38.9968 14.924 37.8928 15.476C36.7888 16.028 36.2368 16.796 36.2368 17.78C36.2368 18.524 36.4288 19.076 36.8128 19.436C37.1968 19.772 37.8088 19.94 38.6488 19.94ZM71.0145 4.712C73.4145 4.712 75.1905 5.444 76.3425 6.908C77.5185 8.348 78.1065 10.376 78.1065 12.992V23H73.6425V13.316C73.6425 11.612 73.3785 10.364 72.8505 9.572C72.3225 8.78 71.4585 8.384 70.2585 8.384C69.0825 8.384 68.1945 8.792 67.5945 9.608C66.9945 10.4 66.6945 11.528 66.6945 12.992V23H62.2305V13.316C62.2305 11.612 61.9545 10.364 61.4025 9.572C60.8505 8.78 59.9745 8.384 58.7745 8.384C57.3585 8.384 56.1945 8.9 55.2825 9.932V23H50.8185V5H54.6345L54.7785 6.44C56.4105 5.288 58.1745 4.712 60.0705 4.712C62.3745 4.712 64.0905 5.54 65.2185 7.196C65.8425 6.404 66.6585 5.792 67.6665 5.36C68.6745 4.928 69.7905 4.712 71.0145 4.712Z" fill="white"/>
<path d="M81.6755 18.104H86.3555V23H81.6755V18.104Z" fill="#F8B700"/>
</svg>
