<svg width="0" height="0" class="hidden">
  <symbol xmlns="http://www.w3.org/2000/svg" viewBox="0 0 64 64" id="basic_watch">
    <circle   stroke-width="2" stroke-miterlimit="10" cx="32" cy="32" r="20"></circle>
    <path   stroke-width="2" stroke-miterlimit="10" d="M20 15V1h24v14m0 34v14H20V49m12-29v12l8 4"></path>
  </symbol>
  <symbol xmlns="http://www.w3.org/2000/svg" viewBox="0 0 64 64" id="basic_webpage">
    <path   stroke-width="2" stroke-miterlimit="10" d="M1 7h62v50H1zm0 8h62m-53-4H6m12 0h-4m12 0h-4"></path>
  </symbol>
  <symbol xmlns="http://www.w3.org/2000/svg" viewBox="0 0 64 64" id="basic_webpage_img_txt">
    <path   stroke-width="2" stroke-miterlimit="10" d="M1 7h62v50H1zm0 8h62m-53-4H6m12 0h-4m12 0h-4M6 25h27M6 33h27M6 41h27"></path>
    <path   stroke-width="2" stroke-miterlimit="10" d="M38 25h19v16H38z"></path>
  </symbol>
  <symbol xmlns="http://www.w3.org/2000/svg" viewBox="0 0 64 64" id="basic_webpage_multiple">
    <g   stroke-width="2" stroke-miterlimit="10">
      <path d="M1 15h54v42H1z"></path>
      <path d="M11 12V7h52v43h-5M1 23h54m-45-4H6m12 0h-4m12 0h-4"></path>
    </g>
  </symbol>
  <symbol xmlns="http://www.w3.org/2000/svg" viewBox="0 0 64 64" id="basic_webpage_txt">
    <path   stroke-width="2" stroke-miterlimit="10" d="M6 25h52M6 33h52M6 41h52M1 7h62v50H1zm0 8h62m-53-4H6m12 0h-4m12 0h-4"></path>
  </symbol>
  <symbol xmlns="http://www.w3.org/2000/svg" viewBox="0 0 64 64" id="basic_world">
    <path   stroke-width="2" stroke-miterlimit="10" d="M32.001.887C49.185.887 63.114 14.816 63.113 32 63.114 49.185 49.184 63.115 32 63.113 14.815 63.114.887 49.185.888 32.001.885 14.816 14.815.887 32.001.887zM32 1v62m31-31H1"></path>
    <path   stroke-width="2" stroke-miterlimit="10" d="M30 1S16 12 16 32s14 31 14 31m4-62s14 11 14 31-14 31-14 31"></path>
    <path   stroke-width="2" stroke-miterlimit="10" d="M8 12s5 10 24 10 24-10 24-10M8 52s5-10 24-10 24 10 24 10"></path>
  </symbol>
  <symbol xmlns="http://www.w3.org/2000/svg" viewBox="0 0 64 64" id="basic_accelerator">
    <path   stroke-width="2" stroke-miterlimit="10" d="M32.001.887C49.185.887 63.114 14.816 63.113 32 63.114 49.185 49.184 63.115 32 63.113 14.815 63.114.887 49.185.888 32.001.885 14.816 14.815.887 32.001.887z"></path>
    <path   stroke-width="2" stroke-miterlimit="10" d="M10 32a21.93 21.93 0 016.444-15.556c8.591-8.593 22.521-8.593 31.112 0A21.93 21.93 0 0154 32m-30-6l6.333 7.333"></path>
    <circle   stroke-width="2" stroke-miterlimit="10" cx="32" cy="35" r="2"></circle>
  </symbol>
  <symbol xmlns="http://www.w3.org/2000/svg" viewBox="0 0 64 64" id="basic_alarm">
    <circle   stroke-width="2" stroke-miterlimit="10" cx="32" cy="32" r="26"></circle>
    <path   stroke-width="2" stroke-miterlimit="10" d="M32 20v12l8 4M21.995 56.005L15 63m34 0l-6.995-6.995M1 8l4-4 10 2L3 18zm58-4l4 4-2 10L49 6z"></path>
  </symbol>
  <symbol xmlns="http://www.w3.org/2000/svg" viewBox="0 0 64 64" id="basic_anchor">
    <path   stroke-width="2" stroke-miterlimit="10" d="M32 13v50"></path>
    <path   stroke-width="2" stroke-linejoin="bevel" stroke-miterlimit="10" d="M19 50L9 47 6 57m39-7l10-3 4 10"></path>
    <path   stroke-width="2" stroke-linejoin="bevel" stroke-miterlimit="10" d="M54.752 47C51.555 56.301 42.576 63 32 63c-10.575 0-19.553-6.698-22.751-15.998M23 17h18"></path>
    <circle   stroke-width="2" stroke-miterlimit="10" cx="32" cy="7" r="6"></circle>
  </symbol>
  <symbol xmlns="http://www.w3.org/2000/svg" viewBox="0 0 64 64" id="basic_anticlockwise">
    <path   stroke-width="2" stroke-miterlimit="10" d="M32 12v20l9 9M4 32h4m48 0h4M32 60v-4m0-48V4"></path>
    <path   stroke-width="2" stroke-miterlimit="10" d="M32 63C14.879 63 1 49.121 1 32S14.879 1 32 1m0 62c17.121 0 31-13.879 31-31a30.857 30.857 0 00-5.759-18l-5.62-5.621"></path>
    <path   stroke-width="2" stroke-linejoin="bevel" stroke-miterlimit="10" d="M51 19V8h11"></path>
  </symbol>
  <symbol xmlns="http://www.w3.org/2000/svg" viewBox="0 0 64 64" id="basic_archive">
    <path   stroke-width="2" stroke-miterlimit="10" d="M5 41l6-40h42l6 40m-38 0c0 6.075 4.925 11 11 11s11-4.925 11-11h16v22H5V41h16z"></path>
  </symbol>
  <symbol xmlns="http://www.w3.org/2000/svg" viewBox="0 0 64 64" id="basic_archive_full">
    <path   stroke-width="2" stroke-miterlimit="10" d="M5 41l6-40h42l6 40m-38 0c0 6.075 4.925 11 11 11s11-4.925 11-11h16v22H5V41h16zm-9-10h40M14 21h36M16 11h32"></path>
  </symbol>
  <symbol xmlns="http://www.w3.org/2000/svg" viewBox="0 0 64 64" id="basic_ban">
    <path   stroke-width="2" stroke-miterlimit="10" d="M53.919 10.08c12.108 12.106 12.108 31.733 0 43.84-12.105 12.107-31.732 12.107-43.838 0-12.108-12.106-12.108-31.733 0-43.84 12.106-12.107 31.732-12.107 43.838 0zm-43.839 0l43.84 43.84"></path>
  </symbol>
  <symbol xmlns="http://www.w3.org/2000/svg" viewBox="0 0 64 64" id="basic_battery_charge">
    <g   stroke-width="2" stroke-miterlimit="10">
      <path d="M1 21h58v24H1zm58 6h4v12h-4"></path>
      <path d="M5 25h50v16H5z"></path>
    </g>
    <path   stroke-width="2" stroke-miterlimit="10" d="M22 33l7-3v6l7-3"></path>
  </symbol>
  <symbol xmlns="http://www.w3.org/2000/svg" viewBox="0 0 64 64" id="basic_battery_empty">
    <g   stroke-width="2" stroke-miterlimit="10">
      <path d="M1 21h58v24H1zm58 6h4v12h-4"></path>
      <path d="M18 41H5V25h9z"></path>
    </g>
  </symbol>
  <symbol xmlns="http://www.w3.org/2000/svg" viewBox="0 0 64 64" id="basic_battery_full">
    <g   stroke-width="2" stroke-miterlimit="10">
      <path d="M1 21h58v24H1zm58 6h4v12h-4"></path>
      <path d="M5 25h50v16H5z"></path>
    </g>
  </symbol>
  <symbol xmlns="http://www.w3.org/2000/svg" viewBox="0 0 64 64" id="basic_battery_half">
    <g   stroke-width="2" stroke-miterlimit="10">
      <path d="M1 21h58v24H1zm58 6h4v12h-4"></path>
      <path d="M33 41H5V25h24z"></path>
    </g>
  </symbol>
  <symbol xmlns="http://www.w3.org/2000/svg" viewBox="0 0 64 64" id="basic_bolt">
    <path   stroke-width="2" stroke-linejoin="bevel" stroke-miterlimit="10" d="M40 1L17 37h14l-7 26 26-36H36z"></path>
  </symbol>
  <symbol xmlns="http://www.w3.org/2000/svg" viewBox="0 0 64 64" id="basic_book">
    <path   stroke-width="2" stroke-miterlimit="10" d="M7 1h46v62H7zm8 62V2m5 13h28m-28 6h28"></path>
  </symbol>
  <symbol xmlns="http://www.w3.org/2000/svg" viewBox="0 0 64 64" id="basic_book_pen">
    <path   stroke-width="2" stroke-miterlimit="10" d="M1 1h46v62H1zm8 62V2m5 13h28m-28 6h28M63 3v50l-4 8-4-8V3zm-8 4h-4v10"></path>
  </symbol>
  <symbol xmlns="http://www.w3.org/2000/svg" viewBox="0 0 64 64" id="basic_book_pencil">
    <path   stroke-width="2" stroke-miterlimit="10" d="M1 1h46v62H1zm8 62V2m5 13h28m-28 6h28M55 1v53l4 8 4-8V1zm0 10h8"></path>
  </symbol>
  <symbol xmlns="http://www.w3.org/2000/svg" viewBox="0 0 64 64" id="basic_bookmark">
    <path   stroke-width="2" stroke-miterlimit="10" d="M18 1h28v61L32 48 18 62z"></path>
  </symbol>
  <symbol xmlns="http://www.w3.org/2000/svg" viewBox="0 0 64 64" id="basic_calculator">
    <path   stroke-width="2" stroke-miterlimit="10" d="M1 1h62v62H1zm17 7v20m10-10H8m48 0H36M10 54l16-16m-16 0l16 16m10-11h20m-20 6h20"></path>
  </symbol>
  <symbol xmlns="http://www.w3.org/2000/svg" viewBox="0 0 64 64" id="basic_calendar">
    <g   stroke-width="2" stroke-miterlimit="10">
      <path d="M46 10H18m-6 0H1v48h62V10H52"></path>
      <path d="M12 6h6v8h-6zm34 0h6v8h-6zM10 24h10v10H10zm0 18h10v10H10zm34-18h10v10H44zm0 18h10v10H44zM27 24h10v10H27zm0 18h10v10H27z"></path>
    </g>
    <path   stroke-width="2" stroke-miterlimit="10" d="M1 18h62"></path>
  </symbol>
  <symbol xmlns="http://www.w3.org/2000/svg" viewBox="0 0 64 64" id="basic_cards_diamonds">
    <path   stroke-width="2" stroke-miterlimit="10" d="M44 59L16 45 36 5l27 14z"></path>
    <path   stroke-width="2" stroke-miterlimit="10" d="M31.899 14.004L28 6 1 20l18 39 13-6.036M35 41l11-5-1-12-11 5zm3-32l-1 2M7 23l-1-2m37 32l-1 2"></path>
  </symbol>
  <symbol xmlns="http://www.w3.org/2000/svg" viewBox="0 0 64 64" id="basic_cards_hearts">
    <path   stroke-width="2" stroke-miterlimit="10" d="M44 59L16 45 36 5l27 14z"></path>
    <path   stroke-width="2" stroke-miterlimit="10" d="M31.899 14.004L28 6 1 20l18 39 13-6.036M38 9l-1 2M7 23l-1-2m37 32l-1 2"></path>
    <path   stroke-width="2" stroke-miterlimit="10" d="M33 25c-2.848 5.281 3 15 3 15s11.151.28 14-5c1.18-2.188 1.377-5.718-1-7-2.188-1.18-5.82-1.188-7 1 1.18-2.188.188-4.82-2-6-2.376-1.282-5.819-.187-7 2z"></path>
  </symbol>
  <symbol xmlns="http://www.w3.org/2000/svg" viewBox="0 0 64 64" id="basic_case">
    <path   stroke-width="2" stroke-miterlimit="10" d="M1 18h62v36H1zm0 12h62"></path>
    <path   stroke-width="2" stroke-miterlimit="10" d="M27 30v6h10v-6M23 18s0-8 9-8 9 8 9 8"></path>
  </symbol>
  <symbol xmlns="http://www.w3.org/2000/svg" viewBox="0 0 64 64" id="basic_chronometer">
    <g   stroke-width="2" stroke-miterlimit="10">
      <path d="M51.799 15.202c10.936 10.933 10.936 28.662 0 39.595-10.935 10.938-28.664 10.938-39.598 0-10.935-10.933-10.935-28.662 0-39.595 10.934-10.936 28.663-10.936 39.598 0z"></path>
      <path d="M32 7V1h6M26 1h6m0 62v-4m0-48V7M4 35h4m48 0h4M14.564 17.565l2.83 2.829m29.212 29.212l2.83 2.83m0-34.871l-2.829 2.829M17.395 49.606l-2.831 2.83M32 21v12"></path>
      <circle cx="32" cy="35" r="3"></circle>
    </g>
  </symbol>
  <symbol xmlns="http://www.w3.org/2000/svg" viewBox="0 0 64 64" id="basic_clessidre">
    <path   stroke-width="2" stroke-miterlimit="10" d="M14 1h36v4H14zm0 58h36v4H14zm4 0V45c0-6 29-19 29-25V5"></path>
    <path   stroke-width="2" stroke-miterlimit="10" d="M47 59V45c0-6-29-19-29-25V5"></path>
  </symbol>
  <symbol xmlns="http://www.w3.org/2000/svg" viewBox="0 0 64 64" id="basic_clock">
    <g   stroke-width="2" stroke-miterlimit="10">
      <path d="M53.92 10.081c12.107 12.105 12.107 31.732 0 43.838-12.106 12.108-31.734 12.108-43.84 0-12.107-12.105-12.107-31.732 0-43.838 12.106-12.108 31.733-12.108 43.84 0z"></path>
      <path d="M32 12v20l9 9M4 32h4m48 0h4M32 60v-4m0-48V4"></path>
    </g>
  </symbol>
  <symbol xmlns="http://www.w3.org/2000/svg" viewBox="0 0 64 64" id="basic_clockwise">
    <path   stroke-width="2" stroke-miterlimit="10" d="M32 12v20l9 9M4 32h4m48 0h4M32 60v-4m0-48V4"></path>
    <path   stroke-width="2" stroke-miterlimit="10" d="M32 63c17.121 0 31-13.879 31-31S49.121 1 32 1m0 62C14.879 63 1 49.121 1 32a30.857 30.857 0 015.759-18l5.62-5.621"></path>
    <path   stroke-width="2" stroke-linejoin="bevel" stroke-miterlimit="10" d="M13 19V8H2"></path>
  </symbol>
  <symbol xmlns="http://www.w3.org/2000/svg" viewBox="0 0 64 64" id="basic_cloud">
    <path   stroke-width="2" stroke-miterlimit="10" d="M41 50h14c4.565 0 8-3.582 8-8s-3.435-8-8-8c0-11.046-9.52-20-20.934-20C23.966 14 14.8 20.732 13 30h-1.667C5.626 30 1 34.477 1 40s4.293 10 10 10h30"></path>
  </symbol>
  <symbol xmlns="http://www.w3.org/2000/svg" viewBox="0 0 64 64" id="basic_clubs">
    <path   stroke-width="2" stroke-miterlimit="10" d="M30 38v6s0 19-7 19h9m0 0h9c-7 0-7-19-7-19v-6"></path>
    <path   stroke-width="2" stroke-linejoin="bevel" stroke-miterlimit="10" d="M34 38c0 7.457 8.044 12.125 15.5 12.125 7.455 0 13.5-6.043 13.5-13.5s-6.045-13.5-13.5-13.5c-2.678 0-5.168.789-7.267 2.135a13.374 13.374 0 003.204-8.697c0-7.422-6.017-13.438-13.438-13.438S18.562 9.141 18.562 16.562c0 3.32 1.21 6.353 3.205 8.697a13.43 13.43 0 00-7.268-2.135c-7.456 0-13.5 6.043-13.5 13.5s6.044 13.5 13.5 13.5C21.955 50.125 30 45.457 30 38"></path>
  </symbol>
  <symbol xmlns="http://www.w3.org/2000/svg" viewBox="0 0 64 64" id="basic_compass">
    <circle   stroke-width="2" stroke-miterlimit="10" cx="32" cy="35" r="28.292"></circle>
    <path   stroke-width="2" stroke-linejoin="bevel" stroke-miterlimit="10" d="M37 40l8-19-19 8-7 18z"></path>
    <path   stroke-width="2" stroke-miterlimit="10" d="M26 29l11 11m-.1-33a5 5 0 10-9.8 0M32 7v5m0 46v5m28-28h-5M9 35H4"></path>
  </symbol>
  <symbol xmlns="http://www.w3.org/2000/svg" viewBox="0 0 64 64" id="basic_cup">
    <path   stroke-width="2" stroke-miterlimit="10" d="M16 27c0 4.418 6.059 8 16 8s16-3.582 16-8V1H16v26zm4 36h24M32 35v28M16 7H7s0 9 9 9m32-9h9s0 9-9 9"></path>
  </symbol>
  <symbol xmlns="http://www.w3.org/2000/svg" viewBox="0 0 64 64" id="basic_diamonds">
    <path   stroke-width="2" stroke-miterlimit="10" d="M33 63l23-31L33 1 10 32z"></path>
  </symbol>
  <symbol xmlns="http://www.w3.org/2000/svg" viewBox="0 0 64 64" id="basic_display">
    <path d="M1 10h62v41H1zm21 53h20m-10 0V51M1 43h63"   stroke-width="2" stroke-miterlimit="10"></path>
  </symbol>
  <symbol xmlns="http://www.w3.org/2000/svg" viewBox="0 0 64 64" id="basic_download">
    <path   stroke-width="2" stroke-linejoin="bevel" stroke-miterlimit="10" d="M40 50l-8 8-8-8"></path>
    <path   stroke-width="2" stroke-miterlimit="10" d="M32 58V26m-8 16H1V6h62v36H40"></path>
  </symbol>
  <symbol xmlns="http://www.w3.org/2000/svg" viewBox="0 0 64 64" id="basic_exclamation">
    <path   stroke-width="2" stroke-miterlimit="10" d="M53.92 10.081c12.107 12.105 12.107 31.732 0 43.838-12.106 12.108-31.734 12.108-43.84 0-12.107-12.105-12.107-31.732 0-43.838 12.106-12.108 31.733-12.108 43.84 0z"></path>
    <path  stroke-width="2" stroke-miterlimit="10" d="M32 17v22m0 4v4"></path>
  </symbol>
  <symbol xmlns="http://www.w3.org/2000/svg" viewBox="0 0 64 64" id="basic_eye">
    <path   stroke-width="2" stroke-miterlimit="10" d="M1 32s11 15 31 15 31-15 31-15-11-15-31-15S1 32 1 32z"></path>
    <circle   stroke-width="2" stroke-miterlimit="10" cx="32" cy="32" r="7"></circle>
  </symbol>
  <symbol xmlns="http://www.w3.org/2000/svg" viewBox="0 0 64 64" id="basic_eye_closed">
    <path   stroke-width="2" stroke-miterlimit="10" d="M1 32s11 15 31 15 31-15 31-15-11-15-31-15S1 32 1 32z"></path>
    <circle   stroke-width="2" stroke-miterlimit="10" cx="32" cy="32" r="7"></circle>
    <path   stroke-width="2" stroke-miterlimit="10" d="M9 55L55 9"></path>
  </symbol>
  <symbol xmlns="http://www.w3.org/2000/svg" viewBox="0 0 64 64" id="basic_female">
    <circle   stroke-width="2" stroke-miterlimit="10" cx="39" cy="25" r="24"></circle>
    <path   stroke-width="2" stroke-miterlimit="10" d="M1 63l21-21M1 46l17 17"></path>
  </symbol>
  <symbol xmlns="http://www.w3.org/2000/svg" viewBox="0 0 64 64" id="basic_flag1">
    <path   stroke-width="2" stroke-miterlimit="10" d="M12 0v64m0-58h41l-6 12 6 12H12"></path>
  </symbol>
  <symbol xmlns="http://www.w3.org/2000/svg" viewBox="0 0 64 64" id="basic_flag2">
    <path   stroke-width="2" stroke-miterlimit="10" d="M7 0v64M32.062 6L26 11v24h31l-6-12 6-12H26"></path>
    <path   stroke-width="2" stroke-miterlimit="10" d="M26 30H7V6h25v5"></path>
  </symbol>
  <symbol xmlns="http://www.w3.org/2000/svg" viewBox="0 0 64 64" id="basic_floppydisk">
    <path   stroke-width="2" stroke-miterlimit="10" d="M63 63H1V1h50l12 12z"></path>
    <path   stroke-width="2" stroke-miterlimit="10" d="M7 31h50v32H7zm7 8h36m-36 8h36m-36 8h36M15 1h34v19H15z"></path>
    <path   stroke-width="2" stroke-miterlimit="10" d="M38 5h5v11h-5z"></path>
  </symbol>
  <symbol xmlns="http://www.w3.org/2000/svg" viewBox="0 0 64 64" id="basic_folder">
    <path   stroke-width="2" stroke-miterlimit="10" d="M63 18v36H1V10h21l8 8z"></path>
  </symbol>
  <symbol xmlns="http://www.w3.org/2000/svg" viewBox="0 0 64 64" id="basic_folder_multiple">
    <path   stroke-width="2" stroke-miterlimit="10" d="M56 22v32H1V15h18.629l7.097 7z"></path>
    <path   stroke-width="2" stroke-miterlimit="10" d="M8 13V7h18.629l7.097 7H63v32h-5"></path>
  </symbol>
  <symbol xmlns="http://www.w3.org/2000/svg" viewBox="0 0 64 64" id="basic_gear">
    <g   stroke-width="2" stroke-miterlimit="10">
      <path d="M32 1h-6v9l-6 2-6-6-8 8 6 6-2 6H1v12h9l2 6-6 6 8 8 6-6 6 2v9h12v-9l6-2 6 6 8-8-6-6 2-6h9V26h-9l-2-6 6-6-8-8-6 6-6-2V1z"></path>
      <circle cx="32" cy="32" r="6"></circle>
    </g>
  </symbol>
  <symbol xmlns="http://www.w3.org/2000/svg" viewBox="0 0 64 64" id="basic_geolocalize-01">
    <g   stroke-width="2" stroke-miterlimit="10">
      <circle cx="32" cy="22" r="6"></circle>
      <path d="M53 22.735C52.948 10.73 43.599 1 32 1s-21 9.73-21 21.735C11 38.271 31.965 63 31.965 63S53.069 38.271 53 22.735z"></path>
    </g>
  </symbol>
  <symbol xmlns="http://www.w3.org/2000/svg" viewBox="0 0 64 64" id="basic_geolocalize-05">
    <g   stroke-width="2" stroke-miterlimit="10">
      <circle cx="32" cy="19.001" r="4"></circle>
      <path d="M45 21.023C44.968 13.276 39.181 7 32 7s-13 6.276-13 14.023C19 31.046 31.979 47 31.979 47S45.043 31.046 45 21.023z"></path>
    </g>
    <path   stroke-width="2" stroke-miterlimit="10" d="M21 37h-9L1 57h62L52 37h-9"></path>
  </symbol>
  <symbol xmlns="http://www.w3.org/2000/svg" viewBox="0 0 64 64" id="basic_globe">
    <path   stroke-width="2" stroke-miterlimit="10" d="M32 1c14.359 0 27 12.641 27 27S46.359 55 32 55c-10 0-13-4-13-4"></path>
    <circle   stroke-width="2" stroke-miterlimit="10" cx="32" cy="28" r="20"></circle>
    <path   stroke-width="2" stroke-miterlimit="10" d="M32 54v10m-10-1h20"></path>
  </symbol>
  <symbol xmlns="http://www.w3.org/2000/svg" viewBox="0 0 64 64" id="basic_gunsight">
    <path   stroke-width="2" stroke-miterlimit="10" d="M32 48v16m0-64v16M16 32H0m64 0H48"></path>
    <circle   stroke-width="2" stroke-miterlimit="10" cx="32" cy="32" r="24"></circle>
  </symbol>
  <symbol xmlns="http://www.w3.org/2000/svg" viewBox="0 0 64 64" id="basic_hammer">
    <path   stroke-width="2" stroke-miterlimit="10" d="M22 20l19 19m22 16l-5.999 6-19-19 6-6zM1 19L17 3c6 6 13 1 13 1l4 4-22 22L1 19z"></path>
  </symbol>
  <symbol xmlns="http://www.w3.org/2000/svg" viewBox="0 0 64 64" id="basic_headset">
    <path   stroke-width="2" stroke-miterlimit="10" d="M11 48C5.477 48 1 43.523 1 38s4.477-10 10-10h2v20h-2zm42-20c5.523 0 10 4.477 10 10s-4.477 10-10 10h-2V28h2zm-40 3v-9S13 6 32 6s19 16 19 16v6m0 20v5l-15 6h-8v-4h8v3"></path>
  </symbol>
  <symbol xmlns="http://www.w3.org/2000/svg" viewBox="0 0 64 64" id="basic_heart">
    <path   stroke-width="2" stroke-miterlimit="10" d="M1 21c0 20 31 38 31 38s31-18 31-38c0-8.285-6-16-15-16-8.285 0-16 5.715-16 14 0-8.285-7.715-14-16-14C7 5 1 12.715 1 21z"></path>
  </symbol>
  <symbol xmlns="http://www.w3.org/2000/svg" viewBox="0 0 64 64" id="basic_heart_broken">
    <path   stroke-width="2" stroke-miterlimit="10" d="M1 21c0 20 31 38 31 38s31-18 31-38c0-8.285-6-16-15-16-8.285 0-16 5.715-16 14 0-8.285-7.715-14-16-14C7 5 1 12.715 1 21z"></path>
    <path   stroke-width="2" stroke-miterlimit="10" d="M29 57l7-7-6-6 6-6-6-6 8-8-6-5v-2"></path>
  </symbol>
  <symbol xmlns="http://www.w3.org/2000/svg" viewBox="0 0 64 64" id="basic_helm">
    <path   stroke-width="2" stroke-miterlimit="10" d="M32 40v24m0-64v24m6 13l21 17M5 10l21 17m12 0l21-16M5 53l21-16"></path>
    <circle   stroke-width="2" stroke-miterlimit="10" cx="32" cy="32" r="8"></circle>
    <circle   stroke-width="2" stroke-miterlimit="10" cx="32" cy="32" r="24"></circle>
  </symbol>
  <symbol xmlns="http://www.w3.org/2000/svg" viewBox="0 0 64 64" id="basic_home">
    <path   stroke-width="2" stroke-miterlimit="10" d="M32 3L2 33h9v30h12V47h16v16h12V33h11z"></path>
  </symbol>
  <symbol xmlns="http://www.w3.org/2000/svg" viewBox="0 0 64 64" id="basic_info">
    <path   stroke-width="2" stroke-miterlimit="10" d="M53.92 10.081c12.107 12.105 12.107 31.732 0 43.838-12.106 12.108-31.734 12.108-43.84 0-12.107-12.105-12.107-31.732 0-43.838 12.106-12.108 31.733-12.108 43.84 0z"></path>
    <path  stroke-width="2" stroke-miterlimit="10" d="M32 47V25m0-4v-4"></path>
  </symbol>
  <symbol xmlns="http://www.w3.org/2000/svg" viewBox="0 0 64 64" id="basic_ipod">
    <g   stroke-width="2" stroke-miterlimit="10">
      <path d="M16 1h32v62H16zm0 35h32M16 5h32"></path>
      <circle stroke-linejoin="bevel" cx="31.5" cy="49.5" r="9.5"></circle>
      <circle stroke-linejoin="bevel" cx="31.5" cy="49.5" r="2.5"></circle>
    </g>
  </symbol>
  <symbol xmlns="http://www.w3.org/2000/svg" viewBox="0 0 64 64" id="basic_joypad">
    <path   stroke-width="2" stroke-miterlimit="10" d="M50 27H14C6.82 27 1 32.82 1 40s5.82 13 13 13c4.6 0 8.632-2.396 10.943-6h14.113C41.368 50.604 45.4 53 50 53c7.18 0 13-5.82 13-13s-5.82-13-13-13z"></path>
    <path   stroke-width="2" stroke-linejoin="bevel" stroke-miterlimit="10" d="M14 32v16m8-8H6"></path>
    <circle   stroke-width="2" stroke-linejoin="bevel" stroke-miterlimit="10" cx="50" cy="39.99" r="7"></circle>
    <path   stroke-width="2" stroke-linejoin="bevel" stroke-miterlimit="10" d="M50 33v14m7-7H43"></path>
    <path   stroke-width="2" stroke-miterlimit="10" d="M32 27v-6h14v-7H36v-3"></path>
  </symbol>
  <symbol xmlns="http://www.w3.org/2000/svg" viewBox="0 0 64 64" id="basic_key">
    <circle   stroke-width="2" stroke-miterlimit="10" cx="51" cy="32" r="12"></circle>
    <path   stroke-width="2" stroke-miterlimit="10" d="M0 32h38M6 32v10m8-10v6"></path>
  </symbol>
  <symbol xmlns="http://www.w3.org/2000/svg" viewBox="0 0 64 64" id="basic_keyboard">
    <path   stroke-width="2" stroke-miterlimit="10" d="M1 22h62v30H1zm6 0v-8h14V7H11V4M4 29h4m2 0h4m2 0h4m2 0h4m2 0h4m2 0h4m2 0h4m2 0h4m2 0h4M4 45h4m2 0h4m2 0h26m8 0h4m2 0h4m-16 0h4M8 37h4m2 0h4m2 0h4m2 0h4m2 0h4m2 0h4m2 0h4m2 0h4m2 0h4"></path>
  </symbol>
  <symbol xmlns="http://www.w3.org/2000/svg" viewBox="0 0 64 64" id="basic_laptop">
    <path d="M8 12h48v34H8zM1 46h62v6H1zm33-30h-4"   stroke-width="2" stroke-miterlimit="10"></path>
  </symbol>
  <symbol xmlns="http://www.w3.org/2000/svg" viewBox="0 0 64 64" id="basic_life_buoy">
    <circle   stroke-width="2" stroke-miterlimit="10" cx="32" cy="32" r="31"></circle>
    <circle   stroke-width="2" stroke-miterlimit="10" cx="32" cy="32" r="15"></circle>
    <path   stroke-width="2" stroke-miterlimit="10" d="M26 18V1m12 17V1M26 63V46m12 17V46m8-20h17M46 38h17M1 26h17M1 38h17"></path>
  </symbol>
  <symbol xmlns="http://www.w3.org/2000/svg" viewBox="0 0 64 64" id="basic_lightbulb">
    <path   stroke-width="2" stroke-miterlimit="10" d="M21 40v5h22l.001-5.107C49 36.195 53 29.564 53 22c0-11.598-9.402-21-21-21s-21 9.402-21 21c0 7.565 3.998 14.304 10 18zm7 5l-3-20m11 20l3-20"></path>
    <path   stroke-width="2" stroke-miterlimit="10" d="M25 26l4 3 3-3 3 3 4-3M21 45h22v6H21zm2 6h18v6H23zm2 6h14v6H25z"></path>
  </symbol>
  <symbol xmlns="http://www.w3.org/2000/svg" viewBox="0 0 64 64" id="basic_link">
    <path   stroke-width="2" stroke-miterlimit="10" d="M37.004 32.166a9.97 9.97 0 003.997.828 9.99 9.99 0 007.998-4.006L60.99 16.98a9.953 9.953 0 001.996-6.002C62.983 5.456 58.502.981 52.979.985a9.961 9.961 0 00-5.999 2.004L33.989 15.998c-1.768 1.805-2.997 4.277-2.996 7.003.001 1.424.3 2.778.837 4.003m.001 0c.053.121.107.24.166.358m-5 4.474a9.946 9.946 0 00-3.998-.83A9.959 9.959 0 0017 33.01L4.01 46.02c-1.768 1.804-2.997 4.276-2.995 7.002.003 5.522 4.484 9.997 10.007 9.993a9.987 9.987 0 007.997-4.006L31.01 47.001a9.953 9.953 0 001.996-6.002 9.96 9.96 0 00-.835-3.998m-9.165 4.005l17.988-18.012"></path>
  </symbol>
  <symbol xmlns="http://www.w3.org/2000/svg" viewBox="0 0 64 64" id="basic_lock">
    <g   stroke-width="2" stroke-miterlimit="10">
      <path d="M8 33h48v30H8zm8 0V17c0-8.837 7.163-16 16-16s16 7.163 16 16v16"></path>
      <circle cx="32" cy="47" r="4"></circle>
      <path d="M32 51v4"></path>
    </g>
  </symbol>
  <symbol xmlns="http://www.w3.org/2000/svg" viewBox="0 0 64 64" id="basic_lock_open">
    <g   stroke-width="2" stroke-miterlimit="10">
      <path d="M8 33h48v30H8zm8 0V17c0-8.837 7.163-16 16-16s16 7.163 16 16v3"></path>
      <circle cx="32" cy="47" r="4"></circle>
      <path d="M32 51v4"></path>
    </g>
  </symbol>
  <symbol xmlns="http://www.w3.org/2000/svg" viewBox="0 0 64 64" id="basic_magic_mouse">
    <path   stroke-width="2" stroke-miterlimit="10" d="M48 17c0-8.836-7.164-16-16-16S16 8.164 16 17v30c0 8.836 7.164 16 16 16s16-7.164 16-16V17zm-16-7v8"></path>
  </symbol>
  <symbol xmlns="http://www.w3.org/2000/svg" viewBox="0 0 64 64" id="basic_magnifier">
    <g   stroke-width="2" stroke-miterlimit="10">
      <circle cx="21" cy="21" r="20"></circle>
      <path d="M35 35l6 6m22 16l-5.999 6-19-19 6-6z"></path>
    </g>
  </symbol>
  <symbol xmlns="http://www.w3.org/2000/svg" viewBox="0 0 64 64" id="basic_magnifier_minus">
    <path   stroke-width="2" stroke-miterlimit="10" d="M12 21h18"></path>
    <g   stroke-width="2" stroke-miterlimit="10">
      <circle cx="21" cy="21" r="20"></circle>
      <path d="M35 35l6 6m22 16l-5.999 6-19-19 6-6z"></path>
    </g>
  </symbol>
  <symbol xmlns="http://www.w3.org/2000/svg" viewBox="0 0 64 64" id="basic_magnifier_plus">
    <path d="M12 21h18m-9-9v18"   stroke-width="2" stroke-miterlimit="10"></path>
    <g   stroke-width="2" stroke-miterlimit="10">
      <circle cx="21" cy="21" r="20"></circle>
      <path d="M35 35l6 6m22 16l-5.999 6-19-19 6-6z"></path>
    </g>
  </symbol>
  <symbol xmlns="http://www.w3.org/2000/svg" viewBox="0 0 64 64" id="basic_mail">
    <g   stroke-width="2" stroke-miterlimit="10">
      <path d="M1 13h62v37H1z"></path>
      <path d="M1 13l31 20 31-20"></path>
    </g>
  </symbol>
  <symbol xmlns="http://www.w3.org/2000/svg" viewBox="0 0 64 64" id="basic_mail_multiple">
    <path   stroke-width="2" stroke-miterlimit="10" d="M1 18h52v32H1z"></path>
    <path   stroke-width="2" stroke-miterlimit="10" d="M9.887 16V9H63v32h-8"></path>
    <path   stroke-width="2" stroke-miterlimit="10" d="M.887 18L27 33.062 53 18"></path>
  </symbol>
  <symbol xmlns="http://www.w3.org/2000/svg" viewBox="0 0 64 64" id="basic_mail_open">
    <g   stroke-width="2" stroke-miterlimit="10">
      <path d="M1 26l31 19.434L63 26"></path>
      <path d="M11.334 21.667L1 26v37h62V26h0l-10.334-4.333"></path>
      <path d="M11 32V1h42v31"></path>
    </g>
  </symbol>
  <symbol xmlns="http://www.w3.org/2000/svg" viewBox="0 0 64 64" id="basic_mail_open_text">
    <g   stroke-width="2" stroke-miterlimit="10">
      <path d="M36 9h9m-26 8h26m-26 8h26M1 26l31 19.434L63 26"></path>
      <path d="M11.334 21.667L1 26v37h62V26h0l-10.334-4.333"></path>
      <path d="M11 32V1h42v31"></path>
    </g>
  </symbol>
  <symbol xmlns="http://www.w3.org/2000/svg" viewBox="0 0 64 64" id="basic_male">
    <circle   stroke-width="2" stroke-miterlimit="10" cx="25" cy="39" r="24"></circle>
    <path   stroke-width="2" stroke-miterlimit="10" d="M63 1L42 22"></path>
    <path   stroke-width="2" stroke-linejoin="bevel" stroke-miterlimit="10" d="M45 1h18v18"></path>
  </symbol>
  <symbol xmlns="http://www.w3.org/2000/svg" viewBox="0 0 64 64" id="basic_map">
    <path   stroke-width="2" stroke-miterlimit="10" d="M1 59l21-8 20 8 21-8V5l-21 8-20-8-21 8zM22 5v46m20-38v46"></path>
  </symbol>
  <symbol xmlns="http://www.w3.org/2000/svg" viewBox="0 0 64 64" id="basic_message">
    <path   stroke-width="2" stroke-miterlimit="10" d="M32 47h31V5H1v42h17v12z"></path>
  </symbol>
  <symbol xmlns="http://www.w3.org/2000/svg" viewBox="0 0 64 64" id="basic_message_multiple">
    <path   stroke-width="2" stroke-miterlimit="10" d="M26 49.042h28.963v-38H1v38h13v10.444z"></path>
    <path   stroke-width="2" stroke-miterlimit="10" d="M57 41.042h5.963v-38H9V9"></path>
  </symbol>
  <symbol xmlns="http://www.w3.org/2000/svg" viewBox="0 0 64 64" id="basic_message_txt">
    <path   stroke-width="2" stroke-miterlimit="10" d="M10 16h44M10 26h44M10 36h44M32 47h31V5H1v42h17v12z"></path>
  </symbol>
  <symbol xmlns="http://www.w3.org/2000/svg" viewBox="0 0 64 64" id="basic_mixer2">
    <path   stroke-width="2" stroke-miterlimit="10" d="M12 19v45M52 0v45m-20-7v26m0-64v26"></path>
    <circle   stroke-width="2" stroke-miterlimit="10" cx="12" cy="13" r="6"></circle>
    <circle   stroke-width="2" stroke-miterlimit="10" cx="52" cy="51" r="6"></circle>
    <circle   stroke-width="2" stroke-miterlimit="10" cx="32" cy="32" r="6"></circle>
    <path   stroke-width="2" stroke-miterlimit="10" d="M12 0v7m40 50v7"></path>
  </symbol>
  <symbol xmlns="http://www.w3.org/2000/svg" viewBox="0 0 64 64" id="basic_mouse">
    <path   stroke-width="2" stroke-miterlimit="10" d="M48 17c0-8.836-7.164-16-16-16S16 8.164 16 17v30c0 8.836 7.164 16 16 16s16-7.164 16-16V17zM32 1v20m-16 0h32"></path>
  </symbol>
  <symbol xmlns="http://www.w3.org/2000/svg" viewBox="0 0 64 64" id="basic_notebook">
    <path   stroke-width="2" stroke-miterlimit="10" d="M11 1h42v62H11zm30 0v61M15 16H7m8-8H7m8 16H7m8 8H7m8 8H7m8 8H7m8 8H7"></path>
  </symbol>
  <symbol xmlns="http://www.w3.org/2000/svg" viewBox="0 0 64 64" id="basic_notebook_pen">
    <path   stroke-width="2" stroke-miterlimit="10" d="M63 3v50l-4 8-4-8V3zm-8 4h-4v10M4 3h40v58H4zm30 0v57M8 16H0m8-8H0m8 16H0m8 8H0m8 8H0m8 8H0m8 8H0"></path>
  </symbol>
  <symbol xmlns="http://www.w3.org/2000/svg" viewBox="0 0 64 64" id="basic_notebook_pencil">
    <path   stroke-width="2" stroke-miterlimit="10" d="M4 3h40v58H4zm30 0v57M8 16H0m8-8H0m8 16H0m8 8H0m8 8H0m8 8H0m8 8H0M55 1v53l4 8 4-8V1zm0 10h8"></path>
  </symbol>
  <symbol xmlns="http://www.w3.org/2000/svg" viewBox="0 0 64 64" id="basic_paperplane">
    <path   stroke-width="2" stroke-linejoin="bevel" stroke-miterlimit="10" d="M1 30L63 1 23 41z"></path>
    <path   stroke-width="2" stroke-linejoin="bevel" stroke-miterlimit="10" d="M34 63L63 1 23 41z"></path>
  </symbol>
  <symbol xmlns="http://www.w3.org/2000/svg" viewBox="0 0 64 64" id="basic_pencil_ruler">
    <path   stroke-width="2" stroke-miterlimit="10" d="M1 63V2l61 61z"></path>
    <path   stroke-width="2" stroke-miterlimit="10" d="M14 54V30l24 24zM8 22H2m4 8H2m6 8H2m4 8H2m6 8H2M25 1l-6 6 36 36 8 2-2-8zm0 12l6-6"></path>
  </symbol>
  <symbol xmlns="http://www.w3.org/2000/svg" viewBox="0 0 64 64" id="basic_pencil_ruler_pen ">
    <path   stroke-width="2" stroke-miterlimit="10" d="M22 1h16v62H22zm9 11h7m0 10h-3m3 20h-3m-4-10h7m-7 20h7M16 63V10l-4-8-4 8v53zm0-10H8M56 3v50l-4 8-4-8V3zm-8 4h-4v10"></path>
  </symbol>
  <symbol xmlns="http://www.w3.org/2000/svg" viewBox="0 0 64 64" id="basic_photo">
    <g   stroke-width="2" stroke-miterlimit="10">
      <path d="M46 20l-8-10H26l-8 10H1v32h62V20z"></path>
      <circle cx="32" cy="36" r="8"></circle>
      <path d="M9 20v32m45-24h0"></path>
    </g>
  </symbol>
  <symbol xmlns="http://www.w3.org/2000/svg" viewBox="0 0 64 64" id="basic_picture">
    <g   stroke-width="2" stroke-miterlimit="10">
      <path d="M1 11h62v42H1z"></path>
      <path d="M1 47l23-20 12 12 6-8 21 18"></path>
      <circle cx="51" cy="22" r="5"></circle>
    </g>
  </symbol>
  <symbol xmlns="http://www.w3.org/2000/svg" viewBox="0 0 64 64" id="basic_picture_multiple">
    <path   stroke-width="2" stroke-miterlimit="10" d="M1 16h52v40H1z"></path>
    <path   stroke-width="2" stroke-miterlimit="10" d="M10 14V8h53v40h-8M1 46l14-14 14 16 10-6 14 12"></path>
    <circle   stroke-width="2" stroke-miterlimit="10" cx="40" cy="29" r="5"></circle>
  </symbol>
  <symbol xmlns="http://www.w3.org/2000/svg" viewBox="0 0 64 64" id="basic_pin1">
    <circle   stroke-width="2" stroke-miterlimit="10" cx="32" cy="16" r="15"></circle>
    <path   stroke-width="2" stroke-miterlimit="10" d="M22.083 16c0-5.477 4.44-9.917 9.917-9.917M32 64V31"></path>
  </symbol>
  <symbol xmlns="http://www.w3.org/2000/svg" viewBox="0 0 64 64" id="basic_pin2">
    <path   stroke-width="2" stroke-miterlimit="10" d="M32 64V36m0-35H22v4l5 4-2 17-9 4-1 6h17m0-35h10v4l-5 4 2 17 9 4 1 6H32"></path>
  </symbol>
  <symbol xmlns="http://www.w3.org/2000/svg" viewBox="0 0 64 64" id="basic_postcard">
    <path   stroke-width="2" stroke-miterlimit="10" d="M1 13h62v41H1z"></path>
    <path   stroke-width="2" stroke-miterlimit="10" d="M49 19h8v10h-8zm-10-1v31M6 21h28M6 27h24M6 33h26"></path>
  </symbol>
  <symbol xmlns="http://www.w3.org/2000/svg" viewBox="0 0 64 64" id="basic_postcard_multiple">
    <path   stroke-width="2" stroke-miterlimit="10" d="M1 20h53v34H1z"></path>
    <path   stroke-width="2" stroke-miterlimit="10" d="M10 16.999V11h53v34h-6"></path>
    <path   stroke-width="2" stroke-miterlimit="10" d="M42 25h7v8h-7zm-9-1v26M5 27h24M5 32h21M5 37h22"></path>
  </symbol>
  <symbol xmlns="http://www.w3.org/2000/svg" viewBox="0 0 64 64" id="basic_printer">
    <path   stroke-width="2" stroke-miterlimit="10" d="M16 1h32v19H16zm0 51H1V20h62v32H48"></path>
    <path   stroke-width="2" stroke-miterlimit="10" d="M16 39h32v24H16zM6 27h4m2 0h4m6 20h20m-20 8h20"></path>
  </symbol>
  <symbol xmlns="http://www.w3.org/2000/svg" viewBox="0 0 64 64" id="basic_question">
    <path   stroke-width="2" stroke-miterlimit="10" d="M53.92 10.081c12.107 12.105 12.107 31.732 0 43.838-12.106 12.108-31.734 12.108-43.84 0-12.107-12.105-12.107-31.732 0-43.838 12.106-12.108 31.733-12.108 43.84 0z"></path>
    <path  stroke-width="2" stroke-miterlimit="10" d="M30 43v4"></path>
    <path   stroke-width="2" stroke-miterlimit="10" d="M24 21c0-3 2-5 8-5 5 0 8 3 8 7s-6 7-6 7-4 2-4 8v1"></path>
  </symbol>
  <symbol xmlns="http://www.w3.org/2000/svg" viewBox="0 0 64 64" id="basic_rss">
    <path   stroke-width="2" stroke-linejoin="bevel" stroke-miterlimit="10" d="M63.051 56a54.77 54.77 0 00-12.786-35.256m0 0C40.177 8.677 25.01 1 8.051 1m43.718 55c0-24.145-19.574-43.718-43.718-43.718M40.486 56c0-17.913-14.523-32.436-32.436-32.436M29.205 56c0-11.684-9.472-21.154-21.154-21.154"></path>
    <circle   stroke-width="2" stroke-linejoin="bevel" stroke-miterlimit="10" cx="8.051" cy="56" r="7.051"></circle>
  </symbol>
  <symbol xmlns="http://www.w3.org/2000/svg" viewBox="0 0 64 64" id="basic_server">
    <path   stroke-width="2" stroke-miterlimit="10" d="M5 41l6-40h42l6 40M5 41h54v22H5z"></path>
    <circle   stroke-width="2" stroke-miterlimit="10" cx="48" cy="52" r="3"></circle>
  </symbol>
  <symbol xmlns="http://www.w3.org/2000/svg" viewBox="0 0 64 64" id="basic_server_cloud">
    <path   stroke-width="2" stroke-miterlimit="10" d="M5 41l6-40h42l6 40M5 41h54v22H5z"></path>
    <circle   stroke-width="2" stroke-miterlimit="10" cx="48" cy="52" r="3"></circle>
    <path   stroke-width="2" stroke-miterlimit="10" d="M34.887 27H39c1.887 0 3-1 3-3 0-1-1-3-3-3 0-3.604-3.277-6-7-6-3.295 0-6.413 2.978-7 6h0c-2 0-3 2-3 3 0 2 1 3 3 3h10.434"></path>
  </symbol>
  <symbol xmlns="http://www.w3.org/2000/svg" viewBox="0 0 64 64" id="basic_server_download">
    <path   stroke-width="2" stroke-miterlimit="10" d="M5 41l6-40h42l6 40M5 41h54v22H5z"></path>
    <circle   stroke-width="2" stroke-miterlimit="10" cx="48" cy="52" r="3"></circle>
    <path   stroke-width="2" stroke-linejoin="bevel" stroke-miterlimit="10" d="M40 23l-8 8-8-8"></path>
    <path   stroke-width="2" stroke-miterlimit="10" d="M32 31V11"></path>
  </symbol>
  <symbol xmlns="http://www.w3.org/2000/svg" viewBox="0 0 64 64" id="basic_server_upload">
    <path   stroke-width="2" stroke-miterlimit="10" d="M5 41l6-40h42l6 40M5 41h54v22H5z"></path>
    <circle   stroke-width="2" stroke-miterlimit="10" cx="48" cy="52" r="3"></circle>
    <path   stroke-width="2" stroke-linejoin="bevel" stroke-miterlimit="10" d="M23.998 20l8-8 8 8"></path>
    <path   stroke-width="2" stroke-miterlimit="10" d="M31.998 12v20"></path>
  </symbol>
  <symbol xmlns="http://www.w3.org/2000/svg" viewBox="0 0 64 64" id="basic_server2">
    <path   stroke-width="2" stroke-linejoin="bevel" stroke-miterlimit="10" d="M59 56c0 3.866-11.641 7-26 7S7 59.866 7 56m52-16c0 3.866-11.641 7-26 7S7 43.866 7 40m52-16c0 3.866-11.641 7-26 7S7 27.866 7 24"></path>
    <ellipse   stroke-width="2" stroke-linejoin="bevel" stroke-miterlimit="10" cx="33" cy="8" rx="26" ry="7"></ellipse>
    <path   stroke-width="2" stroke-linejoin="bevel" stroke-miterlimit="10" d="M7 8v48M59 8v48"></path>
  </symbol>
  <symbol xmlns="http://www.w3.org/2000/svg" viewBox="0 0 64 64" id="basic_settings">
    <path   stroke-width="2" stroke-miterlimit="10" d="M36 34l5 5m22 16l-5.999 6-19-19 6-6zM12 16l6-6L8 4 6 6zm16 10L15 13m43-.5l-8 3.75-4-4.125 3.5-8.062h0C39.5 4.062 37 9 37 14v4L3.5 52l-1.75 6 2.125 2 6.062-1.5L44 25h4c5 0 10-2.5 10-12.5h0z"></path>
  </symbol>
  <symbol xmlns="http://www.w3.org/2000/svg" viewBox="0 0 64 64" id="basic_share">
    <circle   stroke-width="2" stroke-miterlimit="10" cx="51" cy="13" r="12"></circle>
    <circle   stroke-width="2" stroke-miterlimit="10" cx="11" cy="42" r="10"></circle>
    <circle   stroke-width="2" stroke-miterlimit="10" cx="48" cy="55" r="8"></circle>
    <path   stroke-width="2" stroke-miterlimit="10" d="M40 54l-20-8m-1-11l22-14"></path>
  </symbol>
  <symbol xmlns="http://www.w3.org/2000/svg" viewBox="0 0 64 64" id="basic_sheet">
    <g   stroke-width="2" stroke-miterlimit="10">
      <path d="M23 1h32v62H9V15z"></path>
      <path d="M9 15h14V1"></path>
    </g>
  </symbol>
  <symbol xmlns="http://www.w3.org/2000/svg" viewBox="0 0 64 64" id="basic_sheet_multiple ">
    <g   stroke-width="2" stroke-miterlimit="10">
      <path d="M20 9h27v54H8V21z"></path>
      <path d="M24 6l5-5h27v54h-7M8 21h12V9"></path>
    </g>
  </symbol>
  <symbol xmlns="http://www.w3.org/2000/svg" viewBox="0 0 64 64" id="basic_sheet_pen">
    <path   stroke-width="2" stroke-miterlimit="10" d="M63 3v50l-4 8-4-8V3zm-8 4h-4v10m-9-2v46H1V3h29zM8 13h12M8 23h27M8 31h27M8 39h27M8 47h27"></path>
    <path   stroke-width="2" stroke-miterlimit="10" d="M42 15H30V3"></path>
  </symbol>
  <symbol xmlns="http://www.w3.org/2000/svg" viewBox="0 0 64 64" id="basic_sheet_pencil">
    <path   stroke-width="2" stroke-miterlimit="10" d="M42 15v46H1V3h29zM55 1v53l4 8 4-8V1zM8 13h12M8 23h27M8 31h27M8 39h27M8 47h27"></path>
    <path   stroke-width="2" stroke-miterlimit="10" d="M42 15H30V3m25 8h8"></path>
  </symbol>
  <symbol xmlns="http://www.w3.org/2000/svg" viewBox="0 0 64 64" id="basic_sheet_txt ">
    <g   stroke-width="2" stroke-miterlimit="10">
      <path d="M23 1h32v62H9V15z"></path>
      <path d="M9 15h14V1m9 13h14M18 24h28M18 34h28M18 44h28M18 54h28"></path>
    </g>
  </symbol>
  <symbol xmlns="http://www.w3.org/2000/svg" viewBox="0 0 64 64" id="basic_signs">
    <path   stroke-width="2" stroke-miterlimit="10" d="M55 24H22V12h33l7 6zM9 28h33v12H9l-7-6zm23 12v24m0-36v-4m0-12V7m-8 56h16"></path>
  </symbol>
  <symbol xmlns="http://www.w3.org/2000/svg" viewBox="0 0 64 64" id="basic_smartphone">
    <g   stroke-width="2" stroke-miterlimit="10">
      <path d="M16 1h32v62H16zm12 4h8M16 51h32M16 9h32"></path>
      <circle stroke-linejoin="bevel" cx="32" cy="57" r="2"></circle>
    </g>
  </symbol>
  <symbol xmlns="http://www.w3.org/2000/svg" viewBox="0 0 64 64" id="basic_spades">
    <path   stroke-width="2" stroke-miterlimit="10" d="M32 63h9c-7 0-7-19-7-19v-6c0 7.671 6 13 13 13 8.334 0 14-7.329 14-15C61 17.48 32 1 32 1S3 17.48 3 36c0 7.671 6.667 15 15 15 7 0 11.395-5.87 12-13v6s0 19-7 19h9"></path>
  </symbol>
  <symbol xmlns="http://www.w3.org/2000/svg" viewBox="0 0 64 64" id="basic_spread">
    <path   stroke-width="2" stroke-miterlimit="10" d="M1 6v48l31 4 31-4V6l-31 4zm31 52V10"></path>
  </symbol>
  <symbol xmlns="http://www.w3.org/2000/svg" viewBox="0 0 64 64" id="basic_spread_bookmark">
    <path   stroke-width="2" stroke-miterlimit="10" d="M1 6v48l31 4 31-4V6l-31 4zm31 52V10"></path>
    <path   stroke-width="2" stroke-miterlimit="10" d="M43 8v19l4-2 4 2V7"></path>
  </symbol>
  <symbol xmlns="http://www.w3.org/2000/svg" viewBox="0 0 64 64" id="basic_spread_text">
    <path d="M1 6v48l31 4 31-4V6l-31 4zm31 52V10M7 16l19 2M7 26l19 2M7 36l19 2M7 46l19 2m31-32l-19 2m19 8l-19 2m19 8l-19 2m19 8l-19 2"   stroke-width="2" stroke-miterlimit="10"></path>
  </symbol>
  <symbol xmlns="http://www.w3.org/2000/svg" viewBox="0 0 64 64" id="basic_spread_text_bookmark">
    <path   stroke-width="2" stroke-miterlimit="10" d="M1 6v48l31 4 31-4V6l-31 4zm31 52V10"></path>
    <path   stroke-width="2" stroke-miterlimit="10" d="M43 8v19l4-2 4 2V7M7 16l19 2M7 26l19 2M7 36l19 2M7 46l19 2m31-12l-19 2m19 8l-19 2"></path>
  </symbol>
  <symbol xmlns="http://www.w3.org/2000/svg" viewBox="0 0 64 64" id="basic_star">
    <path   stroke-width="2" stroke-miterlimit="10" d="M32 47L12 62l8-24L2 24h22l8-23 8 23h22L44 38l8 24z"></path>
  </symbol>
  <symbol xmlns="http://www.w3.org/2000/svg" viewBox="0 0 64 64" id="basic_tablet">
    <path   stroke-width="2" stroke-miterlimit="10" d="M11 1h42v62H11zm17 4h8M11 51h42M11 9h42"></path>
    <circle   stroke-width="2" stroke-linejoin="bevel" stroke-miterlimit="10" cx="32" cy="57" r="2"></circle>
  </symbol>
  <symbol xmlns="http://www.w3.org/2000/svg" viewBox="0 0 64 64" id="basic_target">
    <path   stroke-width="2" stroke-miterlimit="10" d="M53.92 10.081c12.107 12.105 12.107 31.732 0 43.838-12.106 12.108-31.734 12.108-43.84 0-12.107-12.105-12.107-31.732 0-43.838 12.106-12.108 31.733-12.108 43.84 0z"></path>
    <circle   stroke-width="2" stroke-miterlimit="10" cx="32" cy="32" r="22.999"></circle>
    <circle   stroke-width="2" stroke-miterlimit="10" cx="32" cy="32" r="15"></circle>
    <circle   stroke-width="2" stroke-miterlimit="10" cx="32" cy="32" r="6.999"></circle>
  </symbol>
  <symbol xmlns="http://www.w3.org/2000/svg" viewBox="0 0 64 64" id="basic_todo">
    <path   stroke-width="2" stroke-miterlimit="10" d="M23 8H10v55h44V8H41"></path>
    <path   stroke-width="2" stroke-miterlimit="10" d="M36 5V1h-8v4h-4l-2 8h20l-2-8z"></path>
  </symbol>
  <symbol xmlns="http://www.w3.org/2000/svg" viewBox="0 0 64 64" id="basic_todo_pen ">
    <path   stroke-width="2" stroke-miterlimit="10" d="M63 3v50l-4 8-4-8V3zm-8 4h-4v10M14 8H1v55h44V8H32"></path>
    <path   stroke-width="2" stroke-miterlimit="10" d="M27 5V1h-8v4h-4l-2 8h20l-2-8z"></path>
  </symbol>
  <symbol xmlns="http://www.w3.org/2000/svg" viewBox="0 0 64 64" id="basic_todo_pencil">
    <path   stroke-width="2" stroke-miterlimit="10" d="M55 1v53l4 8 4-8V1zm0 10h8M14 8H1v55h44V8H32"></path>
    <path   stroke-width="2" stroke-miterlimit="10" d="M27 5V1h-8v4h-4l-2 8h20l-2-8z"></path>
  </symbol>
  <symbol xmlns="http://www.w3.org/2000/svg" viewBox="0 0 64 64" id="basic_todo_txt">
    <path   stroke-width="2" stroke-miterlimit="10" d="M25 24h22M25 34h22M25 44h22M25 54h22M21 24h-4m4 10h-4m4 10h-4m4 10h-4m6-46H10v55h44V8H41"></path>
    <path   stroke-width="2" stroke-miterlimit="10" d="M36 5V1h-8v4h-4l-2 8h20l-2-8z"></path>
  </symbol>
  <symbol xmlns="http://www.w3.org/2000/svg" viewBox="0 0 64 64" id="basic_todolist_pen">
    <path   stroke-width="2" stroke-miterlimit="10" d="M16 24h22M16 34h22M16 44h22M16 54h22M12 24H8m4 10H8m4 10H8m4 10H8m6-46H1v55h44V8H32"></path>
    <path   stroke-width="2" stroke-miterlimit="10" d="M27 5V1h-8v4h-4l-2 8h20l-2-8zm36-2v50l-4 8-4-8V3zm-8 4h-4v10"></path>
  </symbol>
  <symbol xmlns="http://www.w3.org/2000/svg" viewBox="0 0 64 64" id="basic_todolist_pencil">
    <path   stroke-width="2" stroke-miterlimit="10" d="M16 24h22M16 34h22M16 44h22M16 54h22M12 24H8m4 10H8m4 10H8m4 10H8m6-46H1v55h44V8H32"></path>
    <path   stroke-width="2" stroke-miterlimit="10" d="M27 5V1h-8v4h-4l-2 8h20l-2-8zm28-4v53l4 8 4-8V1zm0 10h8"></path>
  </symbol>
  <symbol xmlns="http://www.w3.org/2000/svg" viewBox="0 0 64 64" id="basic_trashcan">
    <path d="M25 8V1h14v7m-25 2v53h36V10M26 20v34m12-34v34M10 9h44"   stroke-width="2" stroke-miterlimit="10"></path>
  </symbol>
  <symbol xmlns="http://www.w3.org/2000/svg" viewBox="0 0 64 64" id="basic_trashcan_full">
    <path d="M52 36l6-2 4 14-6 2M10 13h36v50H10zm12 9v34m12-34v34m13.926-34.105L60 63M12 13l2-7 8.857.143L25 13m-2.143-6.857L27 1h12l5 12"   stroke-width="2" stroke-miterlimit="10"></path>
  </symbol>
  <symbol xmlns="http://www.w3.org/2000/svg" viewBox="0 0 64 64" id="basic_trashcan_refresh">
    <path d="M25 8V1h14v7m-25 2v53h36V10M10 9h44"   stroke-width="2" stroke-miterlimit="10"></path>
    <path   stroke-width="2" stroke-miterlimit="10" d="M23 36c0 4.418 3.582 9 8 9h4"></path>
    <path   stroke-width="2" stroke-linejoin="bevel" stroke-miterlimit="10" d="M32 49l3-4-3-4"></path>
    <path   stroke-width="2" stroke-miterlimit="10" d="M41 36c0-4.418-3.582-9-8-9h-4"></path>
    <path   stroke-width="2" stroke-linejoin="bevel" stroke-miterlimit="10" d="M32 23l-3 4 3 4"></path>
  </symbol>
  <symbol xmlns="http://www.w3.org/2000/svg" viewBox="0 0 64 64" id="basic_trashcan_remove">
    <path d="M25 8V1h14v7m-25 2v53h36V10M10 9h44M39 43L25 29m0 14l14-14"   stroke-width="2" stroke-miterlimit="10"></path>
  </symbol>
  <symbol xmlns="http://www.w3.org/2000/svg" viewBox="0 0 64 64" id="basic_upload">
    <path   stroke-width="2" stroke-linejoin="bevel" stroke-miterlimit="10" d="M24 34l8-8 8 8"></path>
    <path   stroke-width="2" stroke-miterlimit="10" d="M32 26v32m-8-16H1V6h62v36H40"></path>
  </symbol>
  <symbol xmlns="http://www.w3.org/2000/svg" viewBox="0 0 64 64" id="basic_usb">
    <path   stroke-width="2" stroke-miterlimit="10" d="M1 14L14 1l14 14-13 13zm10 18l21-21 31 31-21 21zM7 13l9 9M13 7l9 9"></path>
  </symbol>
  <symbol xmlns="http://www.w3.org/2000/svg" viewBox="0 0 64 64" id="basic_video">
    <g   stroke-width="2" stroke-miterlimit="10">
      <path d="M46 30l17-10v32L46 42v10H1V20h45zM6 28h4m4 0h4"></path>
      <path d="M7 36h18v10H7zM6 12h26l8 8"></path>
    </g>
  </symbol>
</svg>